<svg xmlns="http://www.w3.org/2000/svg" viewBox="0 0 1000 1250" width="1000" height="1250" preserveAspectRatio="xMidYMid slice">
  <defs>
    <linearGradient id="ground" x1="0" y1="0" x2="0.25" y2="1">
      <stop offset="0%" stop-color="#3a2c12"/>
      <stop offset="100%" stop-color="#5a4520"/>
    </linearGradient>
    <filter id="soft"><feGaussianBlur stdDeviation="30"/></filter>
    <filter id="rough" x="-25%" y="-25%" width="150%" height="150%">
      <feTurbulence type="fractalNoise" baseFrequency="0.008 0.03" numOctaves="3" seed="54.31" result="n"/>
      <feDisplacementMap in="SourceGraphic" in2="n" scale="34" xChannelSelector="R" yChannelSelector="G"/>
    </filter>
    <filter id="canvas">
      <feTurbulence type="fractalNoise" baseFrequency="0.85" numOctaves="2" seed="7" result="g"/>
      <feColorMatrix in="g" type="matrix" values="0 0 0 0 0  0 0 0 0 0  0 0 0 0 0  0 0 0 0.07 0"/>
    </filter>
    <radialGradient id="vig" cx="50%" cy="40%" r="78%">
      <stop offset="52%" stop-color="#000" stop-opacity="0"/>
      <stop offset="100%" stop-color="#000" stop-opacity="0.38"/>
    </radialGradient>
    <linearGradient id="topGlow" x1="0" y1="0" x2="0" y2="1">
      <stop offset="0%" stop-color="#f7e7b5" stop-opacity="0.14"/>
      <stop offset="42%" stop-color="#f7e7b5" stop-opacity="0"/>
    </linearGradient>
  </defs>

  <rect width="1000" height="1250" fill="url(#ground)"/>
  <g><rect x="-40" y="-30" width="1080" height="62" fill="#eccd76" opacity="0.77" filter="url(#soft)"/><rect x="-40" y="-28" width="1080" height="717" fill="#d8b048" opacity="0.52" filter="url(#soft)"/><rect x="-40" y="629" width="1080" height="416" fill="#8a6526" opacity="0.60" filter="url(#soft)"/><rect x="-40" y="986" width="1080" height="294" fill="#b88a32" opacity="0.71" filter="url(#soft)"/></g>
  <g><circle cx="206" cy="942" r="540" fill="#eccd76" opacity="0.17" filter="url(#soft)"/><circle cx="242" cy="1092" r="433" fill="#b88a32" opacity="0.29" filter="url(#soft)"/><circle cx="325" cy="248" r="322" fill="#d8b048" opacity="0.15" filter="url(#soft)"/></g>
  <g><path d="M 29 899 C 436 884, 638 1039, 740 911" stroke="#d8b048" stroke-width="16" stroke-linecap="round" fill="none" opacity="0.52" filter="url(#rough)"/><path d="M -31 450 C 327 540, 665 717, 718 641" stroke="#8a6526" stroke-width="16" stroke-linecap="round" fill="none" opacity="0.43" filter="url(#rough)"/><path d="M 255 475 C 403 429, 644 322, 856 285" stroke="#8a6526" stroke-width="30" stroke-linecap="round" fill="none" opacity="0.56" filter="url(#rough)"/><path d="M 242 530 C 272 647, 575 411, 949 549" stroke="#d8b048" stroke-width="16" stroke-linecap="round" fill="none" opacity="0.67" filter="url(#rough)"/><path d="M 288 1014 C 343 1138, 598 1088, 969 1065" stroke="#8a6526" stroke-width="20" stroke-linecap="round" fill="none" opacity="0.51" filter="url(#rough)"/><path d="M 130 1021 C 399 926, 621 1110, 877 1102" stroke="#f7e7b5" stroke-width="9" stroke-linecap="round" fill="none" opacity="0.44" filter="url(#rough)"/><path d="M 126 570 C 251 573, 593 320, 1016 368" stroke="#f7e7b5" stroke-width="10" stroke-linecap="round" fill="none" opacity="0.47" filter="url(#rough)"/></g>
  <path d="M -83 924 C 252 775, 710 920, 806 1021" stroke="#f0cf7e" stroke-width="7" stroke-linecap="round" fill="none" opacity="0.80" filter="url(#rough)"/><circle cx="262" cy="90" r="6.1" fill="#f0cf7e" opacity="0.69"/><circle cx="563" cy="1074" r="4.2" fill="#f0cf7e" opacity="0.63"/><circle cx="401" cy="534" r="5.9" fill="#f0cf7e" opacity="0.33"/><circle cx="476" cy="959" r="5.0" fill="#f0cf7e" opacity="0.36"/><circle cx="676" cy="858" r="3.4" fill="#f0cf7e" opacity="0.46"/><circle cx="516" cy="936" r="5.1" fill="#f0cf7e" opacity="0.61"/><circle cx="319" cy="95" r="2.0" fill="#f0cf7e" opacity="0.67"/><circle cx="610" cy="647" r="6.3" fill="#f0cf7e" opacity="0.73"/><circle cx="324" cy="1212" r="2.8" fill="#f0cf7e" opacity="0.28"/><circle cx="386" cy="827" r="4.1" fill="#f0cf7e" opacity="0.27"/><circle cx="106" cy="973" r="6.8" fill="#f0cf7e" opacity="0.31"/><circle cx="882" cy="977" r="1.6" fill="#f0cf7e" opacity="0.45"/><circle cx="289" cy="943" r="2.9" fill="#f0cf7e" opacity="0.63"/><circle cx="255" cy="278" r="1.5" fill="#f0cf7e" opacity="0.56"/><circle cx="284" cy="1199" r="1.8" fill="#f0cf7e" opacity="0.35"/><circle cx="683" cy="336" r="4.0" fill="#f0cf7e" opacity="0.48"/>
  <rect width="1000" height="1250" fill="url(#topGlow)"/>
  <rect width="1000" height="1250" filter="url(#canvas)"/>
  <rect width="1000" height="1250" fill="url(#vig)"/>
</svg>