<svg xmlns="http://www.w3.org/2000/svg" viewBox="0 0 1000 1250" width="1000" height="1250" preserveAspectRatio="xMidYMid slice">
  <defs>
    <linearGradient id="ground" x1="0" y1="0" x2="0.25" y2="1">
      <stop offset="0%" stop-color="#121010"/>
      <stop offset="100%" stop-color="#1f1a16"/>
    </linearGradient>
    <filter id="soft"><feGaussianBlur stdDeviation="30"/></filter>
    <filter id="rough" x="-25%" y="-25%" width="150%" height="150%">
      <feTurbulence type="fractalNoise" baseFrequency="0.008 0.03" numOctaves="3" seed="58.70" result="n"/>
      <feDisplacementMap in="SourceGraphic" in2="n" scale="34" xChannelSelector="R" yChannelSelector="G"/>
    </filter>
    <filter id="canvas">
      <feTurbulence type="fractalNoise" baseFrequency="0.85" numOctaves="2" seed="7" result="g"/>
      <feColorMatrix in="g" type="matrix" values="0 0 0 0 0  0 0 0 0 0  0 0 0 0 0  0 0 0 0.07 0"/>
    </filter>
    <radialGradient id="vig" cx="50%" cy="40%" r="78%">
      <stop offset="52%" stop-color="#000" stop-opacity="0"/>
      <stop offset="100%" stop-color="#000" stop-opacity="0.38"/>
    </radialGradient>
    <linearGradient id="topGlow" x1="0" y1="0" x2="0" y2="1">
      <stop offset="0%" stop-color="#d8b878" stop-opacity="0.14"/>
      <stop offset="42%" stop-color="#d8b878" stop-opacity="0"/>
    </linearGradient>
  </defs>

  <rect width="1000" height="1250" fill="url(#ground)"/>
  <g><rect x="-40" y="-30" width="1080" height="334" fill="#2c241d" opacity="0.72" filter="url(#soft)"/><rect x="-40" y="244" width="1080" height="362" fill="#1a1512" opacity="0.53" filter="url(#soft)"/><rect x="-40" y="546" width="1080" height="292" fill="#3e3026" opacity="0.77" filter="url(#soft)"/><rect x="-40" y="777" width="1080" height="503" fill="#564028" opacity="0.78" filter="url(#soft)"/></g>
  <g><circle cx="377" cy="704" r="344" fill="#2c241d" opacity="0.19" filter="url(#soft)"/><circle cx="202" cy="613" r="530" fill="#1a1512" opacity="0.32" filter="url(#soft)"/><circle cx="714" cy="910" r="473" fill="#d8b878" opacity="0.18" filter="url(#soft)"/><circle cx="827" cy="637" r="517" fill="#2c241d" opacity="0.28" filter="url(#soft)"/></g>
  <g><path d="M 106 182 C 386 66, 708 329, 750 199" stroke="#564028" stroke-width="45" stroke-linecap="round" fill="none" opacity="0.60" filter="url(#rough)"/><path d="M 212 881 C 303 811, 736 916, 1037 796" stroke="#3e3026" stroke-width="31" stroke-linecap="round" fill="none" opacity="0.44" filter="url(#rough)"/><path d="M 225 346 C 377 344, 649 402, 914 288" stroke="#2c241d" stroke-width="39" stroke-linecap="round" fill="none" opacity="0.53" filter="url(#rough)"/><path d="M -6 474 C 369 383, 748 704, 808 684" stroke="#3e3026" stroke-width="32" stroke-linecap="round" fill="none" opacity="0.71" filter="url(#rough)"/><path d="M 168 678 C 360 667, 626 903, 763 804" stroke="#2c241d" stroke-width="23" stroke-linecap="round" fill="none" opacity="0.56" filter="url(#rough)"/><path d="M 165 173 C 443 173, 739 11, 755 46" stroke="#3e3026" stroke-width="38" stroke-linecap="round" fill="none" opacity="0.46" filter="url(#rough)"/><path d="M 206 1121 C 441 987, 623 1061, 837 934" stroke="#d8b878" stroke-width="11" stroke-linecap="round" fill="none" opacity="0.57" filter="url(#rough)"/><path d="M -57 997 C 417 987, 734 1053, 748 1083" stroke="#d8b878" stroke-width="14" stroke-linecap="round" fill="none" opacity="0.57" filter="url(#rough)"/></g>
  <path d="M -50 661 C 344 1020, 633 1350, 1032 1295" stroke="#e0bd76" stroke-width="8" stroke-linecap="round" fill="none" opacity="0.80" filter="url(#rough)"/><circle cx="335" cy="478" r="3.3" fill="#e0bd76" opacity="0.39"/><circle cx="636" cy="259" r="4.8" fill="#e0bd76" opacity="0.32"/><circle cx="154" cy="767" r="3.0" fill="#e0bd76" opacity="0.49"/><circle cx="747" cy="995" r="4.7" fill="#e0bd76" opacity="0.70"/><circle cx="690" cy="1043" r="3.0" fill="#e0bd76" opacity="0.73"/><circle cx="385" cy="15" r="3.9" fill="#e0bd76" opacity="0.32"/><circle cx="514" cy="1105" r="4.6" fill="#e0bd76" opacity="0.53"/><circle cx="493" cy="1038" r="4.9" fill="#e0bd76" opacity="0.66"/><circle cx="917" cy="145" r="2.4" fill="#e0bd76" opacity="0.52"/><circle cx="730" cy="441" r="6.4" fill="#e0bd76" opacity="0.37"/><circle cx="732" cy="20" r="2.0" fill="#e0bd76" opacity="0.64"/><circle cx="693" cy="974" r="3.7" fill="#e0bd76" opacity="0.33"/><circle cx="251" cy="307" r="6.2" fill="#e0bd76" opacity="0.67"/><circle cx="28" cy="320" r="4.7" fill="#e0bd76" opacity="0.59"/>
  <rect width="1000" height="1250" fill="url(#topGlow)"/>
  <rect width="1000" height="1250" filter="url(#canvas)"/>
  <rect width="1000" height="1250" fill="url(#vig)"/>
</svg>