<svg xmlns="http://www.w3.org/2000/svg" viewBox="0 0 1000 1250" width="1000" height="1250" preserveAspectRatio="xMidYMid slice">
  <defs>
    <linearGradient id="ground" x1="0" y1="0" x2="0.25" y2="1">
      <stop offset="0%" stop-color="#2e1d15"/>
      <stop offset="100%" stop-color="#4a2e20"/>
    </linearGradient>
    <filter id="soft"><feGaussianBlur stdDeviation="30"/></filter>
    <filter id="rough" x="-25%" y="-25%" width="150%" height="150%">
      <feTurbulence type="fractalNoise" baseFrequency="0.008 0.03" numOctaves="3" seed="95.62" result="n"/>
      <feDisplacementMap in="SourceGraphic" in2="n" scale="34" xChannelSelector="R" yChannelSelector="G"/>
    </filter>
    <filter id="canvas">
      <feTurbulence type="fractalNoise" baseFrequency="0.85" numOctaves="2" seed="7" result="g"/>
      <feColorMatrix in="g" type="matrix" values="0 0 0 0 0  0 0 0 0 0  0 0 0 0 0  0 0 0 0.07 0"/>
    </filter>
    <radialGradient id="vig" cx="50%" cy="40%" r="78%">
      <stop offset="52%" stop-color="#000" stop-opacity="0"/>
      <stop offset="100%" stop-color="#000" stop-opacity="0.38"/>
    </radialGradient>
    <linearGradient id="topGlow" x1="0" y1="0" x2="0" y2="1">
      <stop offset="0%" stop-color="#e9cbb0" stop-opacity="0.14"/>
      <stop offset="42%" stop-color="#e9cbb0" stop-opacity="0"/>
    </linearGradient>
  </defs>

  <rect width="1000" height="1250" fill="url(#ground)"/>
  <g><rect x="-40" y="-30" width="1080" height="928" fill="#caa07f" opacity="0.51" filter="url(#soft)"/><rect x="-40" y="838" width="1080" height="311" fill="#a9694a" opacity="0.58" filter="url(#soft)"/><rect x="-40" y="1089" width="1080" height="82" fill="#6e3f29" opacity="0.62" filter="url(#soft)"/><rect x="-40" y="1112" width="1080" height="168" fill="#b37950" opacity="0.60" filter="url(#soft)"/></g>
  <g><circle cx="719" cy="197" r="461" fill="#b37950" opacity="0.28" filter="url(#soft)"/><circle cx="292" cy="288" r="384" fill="#a9694a" opacity="0.22" filter="url(#soft)"/><circle cx="596" cy="529" r="378" fill="#6e3f29" opacity="0.21" filter="url(#soft)"/></g>
  <g><path d="M 156 -21 C 362 -107, 593 61, 1103 121" stroke="#a87e5d" stroke-width="12" stroke-linecap="round" fill="none" opacity="0.40" transform="translate(0 7.7)" filter="url(#rough)"/><path d="M 156 -21 C 362 -107, 593 61, 1103 121" stroke="#caa07f" stroke-width="24" stroke-linecap="round" fill="none" opacity="0.67" filter="url(#rough)"/><path d="M 156 -21 C 362 -107, 593 61, 1103 121" stroke="#f8cead" stroke-width="8" stroke-linecap="round" fill="none" opacity="0.47" transform="translate(0 -7.2)" filter="url(#rough)"/><path d="M -92 66 C 268 32, 598 -138, 897 -24" stroke="#874728" stroke-width="28" stroke-linecap="round" fill="none" opacity="0.44" transform="translate(0 18.1)" filter="url(#rough)"/><path d="M -92 66 C 268 32, 598 -138, 897 -24" stroke="#a9694a" stroke-width="56" stroke-linecap="round" fill="none" opacity="0.73" filter="url(#rough)"/><path d="M -92 66 C 268 32, 598 -138, 897 -24" stroke="#d79778" stroke-width="19" stroke-linecap="round" fill="none" opacity="0.51" transform="translate(0 -16.9)" filter="url(#rough)"/><path d="M -83 254 C 397 281, 707 213, 1109 321" stroke="#91572e" stroke-width="20" stroke-linecap="round" fill="none" opacity="0.43" transform="translate(0 12.7)" filter="url(#rough)"/><path d="M -83 254 C 397 281, 707 213, 1109 321" stroke="#b37950" stroke-width="40" stroke-linecap="round" fill="none" opacity="0.71" filter="url(#rough)"/><path d="M -83 254 C 397 281, 707 213, 1109 321" stroke="#e1a77e" stroke-width="14" stroke-linecap="round" fill="none" opacity="0.50" transform="translate(0 -12.0)" filter="url(#rough)"/><path d="M 8 296 C 328 186, 561 307, 820 312" stroke="#874728" stroke-width="27" stroke-linecap="round" fill="none" opacity="0.35" transform="translate(0 17.2)" filter="url(#rough)"/><path d="M 8 296 C 328 186, 561 307, 820 312" stroke="#a9694a" stroke-width="54" stroke-linecap="round" fill="none" opacity="0.58" filter="url(#rough)"/><path d="M 8 296 C 328 186, 561 307, 820 312" stroke="#d79778" stroke-width="18" stroke-linecap="round" fill="none" opacity="0.40" transform="translate(0 -16.1)" filter="url(#rough)"/><path d="M 167 373 C 421 434, 574 509, 955 491" stroke="#a87e5d" stroke-width="26" stroke-linecap="round" fill="none" opacity="0.33" transform="translate(0 16.3)" filter="url(#rough)"/><path d="M 167 373 C 421 434, 574 509, 955 491" stroke="#caa07f" stroke-width="51" stroke-linecap="round" fill="none" opacity="0.54" filter="url(#rough)"/><path d="M 167 373 C 421 434, 574 509, 955 491" stroke="#f8cead" stroke-width="17" stroke-linecap="round" fill="none" opacity="0.38" transform="translate(0 -15.3)" filter="url(#rough)"/><path d="M 44 517 C 317 496, 769 660, 927 552" stroke="#69381a" stroke-width="30" stroke-linecap="round" fill="none" opacity="0.37" transform="translate(0 19.0)" filter="url(#rough)"/><path d="M 44 517 C 317 496, 769 660, 927 552" stroke="#8b5a3c" stroke-width="59" stroke-linecap="round" fill="none" opacity="0.62" filter="url(#rough)"/><path d="M 44 517 C 317 496, 769 660, 927 552" stroke="#b9886a" stroke-width="20" stroke-linecap="round" fill="none" opacity="0.43" transform="translate(0 -17.8)" filter="url(#rough)"/><path d="M 3 697 C 311 751, 703 583, 1095 615" stroke="#91572e" stroke-width="11" stroke-linecap="round" fill="none" opacity="0.30" transform="translate(0 7.0)" filter="url(#rough)"/><path d="M 3 697 C 311 751, 703 583, 1095 615" stroke="#b37950" stroke-width="22" stroke-linecap="round" fill="none" opacity="0.50" filter="url(#rough)"/><path d="M 3 697 C 311 751, 703 583, 1095 615" stroke="#e1a77e" stroke-width="7" stroke-linecap="round" fill="none" opacity="0.35" transform="translate(0 -6.6)" filter="url(#rough)"/><path d="M 349 662 C 425 632, 660 648, 761 594" stroke="#69381a" stroke-width="21" stroke-linecap="round" fill="none" opacity="0.28" transform="translate(0 13.5)" filter="url(#rough)"/><path d="M 349 662 C 425 632, 660 648, 761 594" stroke="#8b5a3c" stroke-width="42" stroke-linecap="round" fill="none" opacity="0.46" filter="url(#rough)"/><path d="M 349 662 C 425 632, 660 648, 761 594" stroke="#b9886a" stroke-width="14" stroke-linecap="round" fill="none" opacity="0.32" transform="translate(0 -12.6)" filter="url(#rough)"/><path d="M -29 902 C 275 923, 656 992, 861 969" stroke="#4c1d07" stroke-width="17" stroke-linecap="round" fill="none" opacity="0.37" transform="translate(0 10.8)" filter="url(#rough)"/><path d="M -29 902 C 275 923, 656 992, 861 969" stroke="#6e3f29" stroke-width="34" stroke-linecap="round" fill="none" opacity="0.62" filter="url(#rough)"/><path d="M -29 902 C 275 923, 656 992, 861 969" stroke="#9c6d57" stroke-width="11" stroke-linecap="round" fill="none" opacity="0.43" transform="translate(0 -10.1)" filter="url(#rough)"/><path d="M 262 890 C 266 968, 677 1028, 768 935" stroke="#69381a" stroke-width="15" stroke-linecap="round" fill="none" opacity="0.29" transform="translate(0 9.4)" filter="url(#rough)"/><path d="M 262 890 C 266 968, 677 1028, 768 935" stroke="#8b5a3c" stroke-width="29" stroke-linecap="round" fill="none" opacity="0.49" filter="url(#rough)"/><path d="M 262 890 C 266 968, 677 1028, 768 935" stroke="#b9886a" stroke-width="10" stroke-linecap="round" fill="none" opacity="0.34" transform="translate(0 -8.8)" filter="url(#rough)"/><path d="M 86 1016 C 318 1029, 636 855, 1068 829" stroke="#4c1d07" stroke-width="29" stroke-linecap="round" fill="none" opacity="0.41" transform="translate(0 18.9)" filter="url(#rough)"/><path d="M 86 1016 C 318 1029, 636 855, 1068 829" stroke="#6e3f29" stroke-width="59" stroke-linecap="round" fill="none" opacity="0.69" filter="url(#rough)"/><path d="M 86 1016 C 318 1029, 636 855, 1068 829" stroke="#9c6d57" stroke-width="20" stroke-linecap="round" fill="none" opacity="0.48" transform="translate(0 -17.7)" filter="url(#rough)"/><path d="M -3 1181 C 296 1092, 707 1145, 955 1123" stroke="#91572e" stroke-width="26" stroke-linecap="round" fill="none" opacity="0.40" transform="translate(0 16.7)" filter="url(#rough)"/><path d="M -3 1181 C 296 1092, 707 1145, 955 1123" stroke="#b37950" stroke-width="52" stroke-linecap="round" fill="none" opacity="0.67" filter="url(#rough)"/><path d="M -3 1181 C 296 1092, 707 1145, 955 1123" stroke="#e1a77e" stroke-width="18" stroke-linecap="round" fill="none" opacity="0.47" transform="translate(0 -15.7)" filter="url(#rough)"/><path d="M 200 1023 C 435 1060, 756 817, 972 920" stroke="#c7a98e" stroke-width="4" stroke-linecap="round" fill="none" opacity="0.36" transform="translate(0 2.6)" filter="url(#rough)"/><path d="M 200 1023 C 435 1060, 756 817, 972 920" stroke="#e9cbb0" stroke-width="8" stroke-linecap="round" fill="none" opacity="0.60" filter="url(#rough)"/><path d="M 200 1023 C 435 1060, 756 817, 972 920" stroke="#fff9de" stroke-width="3" stroke-linecap="round" fill="none" opacity="0.42" transform="translate(0 -2.4)" filter="url(#rough)"/><path d="M 187 380 C 410 351, 697 252, 848 194" stroke="#c7a98e" stroke-width="5" stroke-linecap="round" fill="none" opacity="0.32" transform="translate(0 3.2)" filter="url(#rough)"/><path d="M 187 380 C 410 351, 697 252, 848 194" stroke="#e9cbb0" stroke-width="10" stroke-linecap="round" fill="none" opacity="0.54" filter="url(#rough)"/><path d="M 187 380 C 410 351, 697 252, 848 194" stroke="#fff9de" stroke-width="3" stroke-linecap="round" fill="none" opacity="0.38" transform="translate(0 -3.0)" filter="url(#rough)"/><path d="M 157 933 C 319 834, 717 792, 807 759" stroke="#c7a98e" stroke-width="9" stroke-linecap="round" fill="none" opacity="0.28" transform="translate(0 5.8)" filter="url(#rough)"/><path d="M 157 933 C 319 834, 717 792, 807 759" stroke="#e9cbb0" stroke-width="18" stroke-linecap="round" fill="none" opacity="0.46" filter="url(#rough)"/><path d="M 157 933 C 319 834, 717 792, 807 759" stroke="#fff9de" stroke-width="6" stroke-linecap="round" fill="none" opacity="0.32" transform="translate(0 -5.4)" filter="url(#rough)"/></g>
  <path d="M -50 466 C 348 482, 740 359, 912 268" stroke="#d9a877" stroke-width="8" stroke-linecap="round" fill="none" opacity="0.85" filter="url(#rough)"/><circle cx="459" cy="769" r="2.4" fill="#d9a877" opacity="0.73"/><circle cx="400" cy="900" r="2.6" fill="#d9a877" opacity="0.44"/><circle cx="722" cy="650" r="5.3" fill="#d9a877" opacity="0.39"/><circle cx="151" cy="974" r="1.7" fill="#d9a877" opacity="0.68"/><circle cx="423" cy="1169" r="2.1" fill="#d9a877" opacity="0.57"/><circle cx="268" cy="1237" r="3.1" fill="#d9a877" opacity="0.74"/><circle cx="645" cy="844" r="6.8" fill="#d9a877" opacity="0.47"/><circle cx="156" cy="1166" r="1.8" fill="#d9a877" opacity="0.43"/><circle cx="500" cy="847" r="4.9" fill="#d9a877" opacity="0.68"/><circle cx="954" cy="1139" r="3.7" fill="#d9a877" opacity="0.35"/><circle cx="619" cy="1085" r="6.9" fill="#d9a877" opacity="0.63"/><circle cx="356" cy="122" r="2.2" fill="#d9a877" opacity="0.41"/><circle cx="771" cy="240" r="3.7" fill="#d9a877" opacity="0.75"/><circle cx="332" cy="38" r="6.4" fill="#d9a877" opacity="0.26"/><circle cx="318" cy="668" r="6.9" fill="#d9a877" opacity="0.37"/><circle cx="776" cy="438" r="3.6" fill="#d9a877" opacity="0.25"/><circle cx="757" cy="636" r="2.2" fill="#d9a877" opacity="0.51"/><circle cx="859" cy="79" r="5.8" fill="#d9a877" opacity="0.53"/><circle cx="896" cy="970" r="5.5" fill="#d9a877" opacity="0.54"/><circle cx="594" cy="510" r="4.3" fill="#d9a877" opacity="0.51"/><circle cx="713" cy="1126" r="3.0" fill="#d9a877" opacity="0.48"/><circle cx="171" cy="748" r="3.9" fill="#d9a877" opacity="0.27"/><circle cx="811" cy="1016" r="4.1" fill="#d9a877" opacity="0.45"/><circle cx="294" cy="819" r="2.9" fill="#d9a877" opacity="0.37"/><circle cx="746" cy="409" r="2.6" fill="#d9a877" opacity="0.26"/>
  <rect width="1000" height="1250" fill="url(#topGlow)"/>
  <rect width="1000" height="1250" filter="url(#canvas)"/>
  <rect width="1000" height="1250" fill="url(#vig)"/>
</svg>