<svg xmlns="http://www.w3.org/2000/svg" viewBox="0 0 1000 1250" width="1000" height="1250" preserveAspectRatio="xMidYMid slice">
  <defs>
    <linearGradient id="ground" x1="0" y1="0" x2="0.25" y2="1">
      <stop offset="0%" stop-color="#2e1d15"/>
      <stop offset="100%" stop-color="#4a2e20"/>
    </linearGradient>
    <filter id="soft"><feGaussianBlur stdDeviation="30"/></filter>
    <filter id="rough" x="-25%" y="-25%" width="150%" height="150%">
      <feTurbulence type="fractalNoise" baseFrequency="0.008 0.03" numOctaves="3" seed="33.61" result="n"/>
      <feDisplacementMap in="SourceGraphic" in2="n" scale="34" xChannelSelector="R" yChannelSelector="G"/>
    </filter>
    <filter id="canvas">
      <feTurbulence type="fractalNoise" baseFrequency="0.85" numOctaves="2" seed="7" result="g"/>
      <feColorMatrix in="g" type="matrix" values="0 0 0 0 0  0 0 0 0 0  0 0 0 0 0  0 0 0 0.07 0"/>
    </filter>
    <radialGradient id="vig" cx="50%" cy="40%" r="78%">
      <stop offset="52%" stop-color="#000" stop-opacity="0"/>
      <stop offset="100%" stop-color="#000" stop-opacity="0.38"/>
    </radialGradient>
    <linearGradient id="topGlow" x1="0" y1="0" x2="0" y2="1">
      <stop offset="0%" stop-color="#e9cbb0" stop-opacity="0.14"/>
      <stop offset="42%" stop-color="#e9cbb0" stop-opacity="0"/>
    </linearGradient>
  </defs>

  <rect width="1000" height="1250" fill="url(#ground)"/>
  <g><rect x="-40" y="-30" width="1080" height="229" fill="#a9694a" opacity="0.66" filter="url(#soft)"/><rect x="-40" y="139" width="1080" height="529" fill="#b37950" opacity="0.70" filter="url(#soft)"/><rect x="-40" y="608" width="1080" height="672" fill="#6e3f29" opacity="0.61" filter="url(#soft)"/></g>
  <g><circle cx="615" cy="638" r="500" fill="#e9cbb0" opacity="0.32" filter="url(#soft)"/><circle cx="101" cy="429" r="415" fill="#e9cbb0" opacity="0.30" filter="url(#soft)"/><circle cx="660" cy="891" r="404" fill="#a9694a" opacity="0.29" filter="url(#soft)"/></g>
  <g><path d="M 305 5 C 330 55, 741 -68, 805 18" stroke="#69381a" stroke-width="13" stroke-linecap="round" fill="none" opacity="0.34" transform="translate(0 8.4)" filter="url(#rough)"/><path d="M 305 5 C 330 55, 741 -68, 805 18" stroke="#8b5a3c" stroke-width="26" stroke-linecap="round" fill="none" opacity="0.57" filter="url(#rough)"/><path d="M 305 5 C 330 55, 741 -68, 805 18" stroke="#b9886a" stroke-width="9" stroke-linecap="round" fill="none" opacity="0.40" transform="translate(0 -7.9)" filter="url(#rough)"/><path d="M -35 71 C 286 35, 570 10, 1069 29" stroke="#69381a" stroke-width="10" stroke-linecap="round" fill="none" opacity="0.46" transform="translate(0 6.5)" filter="url(#rough)"/><path d="M -35 71 C 286 35, 570 10, 1069 29" stroke="#8b5a3c" stroke-width="20" stroke-linecap="round" fill="none" opacity="0.77" filter="url(#rough)"/><path d="M -35 71 C 286 35, 570 10, 1069 29" stroke="#b9886a" stroke-width="7" stroke-linecap="round" fill="none" opacity="0.54" transform="translate(0 -6.1)" filter="url(#rough)"/><path d="M 332 320 C 347 275, 572 448, 787 483" stroke="#69381a" stroke-width="25" stroke-linecap="round" fill="none" opacity="0.37" transform="translate(0 15.9)" filter="url(#rough)"/><path d="M 332 320 C 347 275, 572 448, 787 483" stroke="#8b5a3c" stroke-width="50" stroke-linecap="round" fill="none" opacity="0.62" filter="url(#rough)"/><path d="M 332 320 C 347 275, 572 448, 787 483" stroke="#b9886a" stroke-width="17" stroke-linecap="round" fill="none" opacity="0.43" transform="translate(0 -14.9)" filter="url(#rough)"/><path d="M -28 409 C 320 487, 762 187, 1108 253" stroke="#874728" stroke-width="29" stroke-linecap="round" fill="none" opacity="0.28" transform="translate(0 18.4)" filter="url(#rough)"/><path d="M -28 409 C 320 487, 762 187, 1108 253" stroke="#a9694a" stroke-width="58" stroke-linecap="round" fill="none" opacity="0.46" filter="url(#rough)"/><path d="M -28 409 C 320 487, 762 187, 1108 253" stroke="#d79778" stroke-width="20" stroke-linecap="round" fill="none" opacity="0.32" transform="translate(0 -17.3)" filter="url(#rough)"/><path d="M 95 526 C 384 501, 589 540, 894 663" stroke="#69381a" stroke-width="13" stroke-linecap="round" fill="none" opacity="0.27" transform="translate(0 8.2)" filter="url(#rough)"/><path d="M 95 526 C 384 501, 589 540, 894 663" stroke="#8b5a3c" stroke-width="26" stroke-linecap="round" fill="none" opacity="0.45" filter="url(#rough)"/><path d="M 95 526 C 384 501, 589 540, 894 663" stroke="#b9886a" stroke-width="9" stroke-linecap="round" fill="none" opacity="0.32" transform="translate(0 -7.7)" filter="url(#rough)"/><path d="M 311 639 C 393 586, 588 412, 1085 522" stroke="#874728" stroke-width="11" stroke-linecap="round" fill="none" opacity="0.42" transform="translate(0 7.0)" filter="url(#rough)"/><path d="M 311 639 C 393 586, 588 412, 1085 522" stroke="#a9694a" stroke-width="22" stroke-linecap="round" fill="none" opacity="0.69" filter="url(#rough)"/><path d="M 311 639 C 393 586, 588 412, 1085 522" stroke="#d79778" stroke-width="7" stroke-linecap="round" fill="none" opacity="0.48" transform="translate(0 -6.6)" filter="url(#rough)"/><path d="M -139 709 C 354 715, 613 556, 1009 654" stroke="#4c1d07" stroke-width="10" stroke-linecap="round" fill="none" opacity="0.40" transform="translate(0 6.7)" filter="url(#rough)"/><path d="M -139 709 C 354 715, 613 556, 1009 654" stroke="#6e3f29" stroke-width="21" stroke-linecap="round" fill="none" opacity="0.67" filter="url(#rough)"/><path d="M -139 709 C 354 715, 613 556, 1009 654" stroke="#9c6d57" stroke-width="7" stroke-linecap="round" fill="none" opacity="0.47" transform="translate(0 -6.3)" filter="url(#rough)"/><path d="M 172 814 C 378 772, 599 619, 977 624" stroke="#a87e5d" stroke-width="15" stroke-linecap="round" fill="none" opacity="0.34" transform="translate(0 9.6)" filter="url(#rough)"/><path d="M 172 814 C 378 772, 599 619, 977 624" stroke="#caa07f" stroke-width="30" stroke-linecap="round" fill="none" opacity="0.57" filter="url(#rough)"/><path d="M 172 814 C 378 772, 599 619, 977 624" stroke="#f8cead" stroke-width="10" stroke-linecap="round" fill="none" opacity="0.40" transform="translate(0 -9.0)" filter="url(#rough)"/><path d="M 350 1018 C 280 1050, 634 1195, 944 1129" stroke="#69381a" stroke-width="20" stroke-linecap="round" fill="none" opacity="0.41" transform="translate(0 12.5)" filter="url(#rough)"/><path d="M 350 1018 C 280 1050, 634 1195, 944 1129" stroke="#8b5a3c" stroke-width="39" stroke-linecap="round" fill="none" opacity="0.68" filter="url(#rough)"/><path d="M 350 1018 C 280 1050, 634 1195, 944 1129" stroke="#b9886a" stroke-width="13" stroke-linecap="round" fill="none" opacity="0.48" transform="translate(0 -11.7)" filter="url(#rough)"/><path d="M -9 1185 C 370 1224, 668 963, 1006 1014" stroke="#91572e" stroke-width="16" stroke-linecap="round" fill="none" opacity="0.33" transform="translate(0 10.5)" filter="url(#rough)"/><path d="M -9 1185 C 370 1224, 668 963, 1006 1014" stroke="#b37950" stroke-width="33" stroke-linecap="round" fill="none" opacity="0.54" filter="url(#rough)"/><path d="M -9 1185 C 370 1224, 668 963, 1006 1014" stroke="#e1a77e" stroke-width="11" stroke-linecap="round" fill="none" opacity="0.38" transform="translate(0 -9.9)" filter="url(#rough)"/><path d="M -50 272 C 375 344, 592 199, 752 160" stroke="#c7a98e" stroke-width="9" stroke-linecap="round" fill="none" opacity="0.26" transform="translate(0 6.1)" filter="url(#rough)"/><path d="M -50 272 C 375 344, 592 199, 752 160" stroke="#e9cbb0" stroke-width="19" stroke-linecap="round" fill="none" opacity="0.43" filter="url(#rough)"/><path d="M -50 272 C 375 344, 592 199, 752 160" stroke="#fff9de" stroke-width="6" stroke-linecap="round" fill="none" opacity="0.30" transform="translate(0 -5.7)" filter="url(#rough)"/><path d="M 152 810 C 312 811, 701 988, 1020 969" stroke="#c7a98e" stroke-width="7" stroke-linecap="round" fill="none" opacity="0.28" transform="translate(0 4.2)" filter="url(#rough)"/><path d="M 152 810 C 312 811, 701 988, 1020 969" stroke="#e9cbb0" stroke-width="13" stroke-linecap="round" fill="none" opacity="0.46" filter="url(#rough)"/><path d="M 152 810 C 312 811, 701 988, 1020 969" stroke="#fff9de" stroke-width="4" stroke-linecap="round" fill="none" opacity="0.32" transform="translate(0 -3.9)" filter="url(#rough)"/><path d="M -58 322 C 417 412, 657 343, 810 416" stroke="#c7a98e" stroke-width="10" stroke-linecap="round" fill="none" opacity="0.35" transform="translate(0 6.3)" filter="url(#rough)"/><path d="M -58 322 C 417 412, 657 343, 810 416" stroke="#e9cbb0" stroke-width="20" stroke-linecap="round" fill="none" opacity="0.58" filter="url(#rough)"/><path d="M -58 322 C 417 412, 657 343, 810 416" stroke="#fff9de" stroke-width="7" stroke-linecap="round" fill="none" opacity="0.41" transform="translate(0 -5.9)" filter="url(#rough)"/></g>
  <path d="M -50 765 C 414 846, 678 847, 1047 824" stroke="#d9a877" stroke-width="5" stroke-linecap="round" fill="none" opacity="0.85" filter="url(#rough)"/><circle cx="820" cy="475" r="6.2" fill="#d9a877" opacity="0.74"/><circle cx="181" cy="312" r="2.3" fill="#d9a877" opacity="0.35"/><circle cx="52" cy="898" r="5.5" fill="#d9a877" opacity="0.29"/><circle cx="259" cy="522" r="1.9" fill="#d9a877" opacity="0.64"/><circle cx="755" cy="760" r="5.6" fill="#d9a877" opacity="0.66"/><circle cx="805" cy="181" r="3.3" fill="#d9a877" opacity="0.33"/><circle cx="131" cy="743" r="1.8" fill="#d9a877" opacity="0.28"/><circle cx="263" cy="1216" r="5.5" fill="#d9a877" opacity="0.34"/><circle cx="340" cy="1037" r="5.7" fill="#d9a877" opacity="0.55"/><circle cx="531" cy="408" r="5.2" fill="#d9a877" opacity="0.47"/><circle cx="520" cy="202" r="5.8" fill="#d9a877" opacity="0.67"/><circle cx="468" cy="124" r="6.7" fill="#d9a877" opacity="0.53"/><circle cx="979" cy="1180" r="4.1" fill="#d9a877" opacity="0.67"/><circle cx="707" cy="563" r="3.0" fill="#d9a877" opacity="0.42"/><circle cx="325" cy="720" r="5.4" fill="#d9a877" opacity="0.75"/><circle cx="853" cy="920" r="3.2" fill="#d9a877" opacity="0.68"/><circle cx="335" cy="906" r="4.3" fill="#d9a877" opacity="0.62"/><circle cx="248" cy="496" r="6.3" fill="#d9a877" opacity="0.60"/><circle cx="713" cy="83" r="3.5" fill="#d9a877" opacity="0.59"/><circle cx="923" cy="973" r="5.5" fill="#d9a877" opacity="0.34"/><circle cx="436" cy="165" r="6.8" fill="#d9a877" opacity="0.46"/><circle cx="397" cy="188" r="6.2" fill="#d9a877" opacity="0.37"/>
  <rect width="1000" height="1250" fill="url(#topGlow)"/>
  <rect width="1000" height="1250" filter="url(#canvas)"/>
  <rect width="1000" height="1250" fill="url(#vig)"/>
</svg>