<svg xmlns="http://www.w3.org/2000/svg" viewBox="0 0 1000 1250" width="1000" height="1250" preserveAspectRatio="xMidYMid slice">
  <defs>
    <linearGradient id="ground" x1="0" y1="0" x2="0.25" y2="1">
      <stop offset="0%" stop-color="#2a1d10"/>
      <stop offset="100%" stop-color="#3d2a16"/>
    </linearGradient>
    <filter id="soft"><feGaussianBlur stdDeviation="30"/></filter>
    <filter id="rough" x="-25%" y="-25%" width="150%" height="150%">
      <feTurbulence type="fractalNoise" baseFrequency="0.008 0.03" numOctaves="3" seed="1.14" result="n"/>
      <feDisplacementMap in="SourceGraphic" in2="n" scale="34" xChannelSelector="R" yChannelSelector="G"/>
    </filter>
    <filter id="canvas">
      <feTurbulence type="fractalNoise" baseFrequency="0.85" numOctaves="2" seed="7" result="g"/>
      <feColorMatrix in="g" type="matrix" values="0 0 0 0 0  0 0 0 0 0  0 0 0 0 0  0 0 0 0.07 0"/>
    </filter>
    <radialGradient id="vig" cx="50%" cy="40%" r="78%">
      <stop offset="52%" stop-color="#000" stop-opacity="0"/>
      <stop offset="100%" stop-color="#000" stop-opacity="0.38"/>
    </radialGradient>
    <linearGradient id="topGlow" x1="0" y1="0" x2="0" y2="1">
      <stop offset="0%" stop-color="#f5e2bd" stop-opacity="0.14"/>
      <stop offset="42%" stop-color="#f5e2bd" stop-opacity="0"/>
    </linearGradient>
  </defs>

  <rect width="1000" height="1250" fill="url(#ground)"/>
  <g><rect x="-40" y="-30" width="1080" height="526" fill="#7a4a20" opacity="0.62" filter="url(#soft)"/><rect x="-40" y="436" width="1080" height="72" fill="#e6b667" opacity="0.70" filter="url(#soft)"/><rect x="-40" y="448" width="1080" height="802" fill="#c8923f" opacity="0.59" filter="url(#soft)"/><rect x="-40" y="1189" width="1080" height="91" fill="#9a6b2f" opacity="0.72" filter="url(#soft)"/></g>
  <g><circle cx="497" cy="683" r="324" fill="#9a6b2f" opacity="0.16" filter="url(#soft)"/><circle cx="823" cy="850" r="342" fill="#c8923f" opacity="0.30" filter="url(#soft)"/><circle cx="166" cy="621" r="325" fill="#7a4a20" opacity="0.19" filter="url(#soft)"/><circle cx="220" cy="400" r="524" fill="#7a4a20" opacity="0.21" filter="url(#soft)"/></g>
  <g><path d="M 169 577 C 381 436, 676 419, 855 355" stroke="#e6b667" stroke-width="31" stroke-linecap="round" fill="none" opacity="0.46" filter="url(#rough)"/><path d="M -63 485 C 408 465, 564 770, 803 630" stroke="#7a4a20" stroke-width="46" stroke-linecap="round" fill="none" opacity="0.66" filter="url(#rough)"/><path d="M 82 789 C 367 860, 658 769, 1056 773" stroke="#9a6b2f" stroke-width="41" stroke-linecap="round" fill="none" opacity="0.52" filter="url(#rough)"/><path d="M 216 710 C 347 846, 679 729, 1076 787" stroke="#7a4a20" stroke-width="36" stroke-linecap="round" fill="none" opacity="0.73" filter="url(#rough)"/><path d="M 105 799 C 299 752, 713 734, 918 674" stroke="#7a4a20" stroke-width="41" stroke-linecap="round" fill="none" opacity="0.45" filter="url(#rough)"/><path d="M 124 267 C 266 206, 716 98, 1062 143" stroke="#e6b667" stroke-width="35" stroke-linecap="round" fill="none" opacity="0.44" filter="url(#rough)"/><path d="M -2 544 C 408 647, 633 323, 971 336" stroke="#f5e2bd" stroke-width="16" stroke-linecap="round" fill="none" opacity="0.56" filter="url(#rough)"/><path d="M 239 307 C 388 259, 614 231, 788 183" stroke="#f5e2bd" stroke-width="16" stroke-linecap="round" fill="none" opacity="0.50" filter="url(#rough)"/></g>
  <path d="M -50 509 C 298 954, 569 900, 916 786" stroke="#e8c074" stroke-width="5" stroke-linecap="round" fill="none" opacity="0.80" filter="url(#rough)"/><circle cx="62" cy="290" r="1.6" fill="#e8c074" opacity="0.63"/><circle cx="156" cy="1014" r="3.0" fill="#e8c074" opacity="0.66"/><circle cx="856" cy="96" r="6.2" fill="#e8c074" opacity="0.30"/><circle cx="382" cy="521" r="4.8" fill="#e8c074" opacity="0.40"/><circle cx="632" cy="794" r="6.5" fill="#e8c074" opacity="0.39"/><circle cx="519" cy="173" r="6.2" fill="#e8c074" opacity="0.45"/><circle cx="473" cy="251" r="6.0" fill="#e8c074" opacity="0.51"/><circle cx="672" cy="947" r="1.9" fill="#e8c074" opacity="0.63"/><circle cx="462" cy="382" r="1.6" fill="#e8c074" opacity="0.34"/><circle cx="970" cy="700" r="4.3" fill="#e8c074" opacity="0.41"/><circle cx="301" cy="506" r="5.3" fill="#e8c074" opacity="0.42"/><circle cx="824" cy="347" r="1.8" fill="#e8c074" opacity="0.68"/><circle cx="125" cy="704" r="1.7" fill="#e8c074" opacity="0.33"/><circle cx="215" cy="862" r="3.5" fill="#e8c074" opacity="0.43"/>
  <rect width="1000" height="1250" fill="url(#topGlow)"/>
  <rect width="1000" height="1250" filter="url(#canvas)"/>
  <rect width="1000" height="1250" fill="url(#vig)"/>
</svg>